<svg width="15" height="15" viewBox="0 0 15 15" fill="none" xmlns="http://www.w3.org/2000/svg">
<path d="M1.66667 4.83333C1.66667 4.11917 1.66667 3.63417 1.69833 3.25917C1.7275 2.89417 1.78167 2.70667 1.84833 2.57667L0.363333 1.82C0.1575 2.22417 0.0749999 2.655 0.0366666 3.12333C-7.45058e-08 3.58167 0 4.14667 0 4.83333H1.66667ZM1.66667 6.66667V4.83333H0V6.66667H1.66667ZM0 6.66667V10.8333H1.66667V6.66667H0ZM0 10.8333V13.2617H1.66667V10.8333H0ZM0 13.2617C0 14.3375 1.30167 14.8767 2.0625 14.1158L0.884166 12.9375C0.948266 12.8734 1.02995 12.8297 1.11887 12.812C1.2078 12.7943 1.29998 12.8034 1.38375 12.8381C1.46752 12.8728 1.53911 12.9315 1.58947 13.0069C1.63983 13.0824 1.6667 13.171 1.66667 13.2617H0ZM2.0625 14.1158L4.5125 11.6667L3.33333 10.4883L0.884166 12.9375L2.0625 14.1158ZM10.1667 10H4.51167V11.6667H10.1667V10ZM12.4233 9.81833C12.2933 9.885 12.1067 9.93917 11.7408 9.96833C11.3658 9.99917 10.8808 10 10.1667 10V11.6667C10.8533 11.6667 11.4175 11.6667 11.8767 11.63C12.345 11.5917 12.7758 11.5092 13.18 11.3033L12.4233 9.81833ZM13.1517 9.09C12.9919 9.40359 12.7369 9.65855 12.4233 9.81833L13.18 11.3033C13.8072 10.9838 14.3171 10.4738 14.6367 9.84667L13.1517 9.09ZM13.3333 6.83333C13.3333 7.5475 13.3333 8.0325 13.3017 8.4075C13.2725 8.7725 13.2183 8.96 13.1517 9.09L14.6367 9.84667C14.8425 9.4425 14.925 9.01167 14.9633 8.54333C15.0008 8.085 15 7.52 15 6.83333H13.3333ZM13.3333 4.83333V6.83333H15V4.83333H13.3333ZM13.1517 2.57667C13.2183 2.70667 13.2725 2.89333 13.3017 3.25917C13.3333 3.63417 13.3333 4.11917 13.3333 4.83333H15C15 4.14667 15 3.5825 14.9633 3.12333C14.925 2.655 14.8425 2.22417 14.6367 1.82L13.1517 2.57667ZM12.4233 1.84833C12.7369 2.00812 12.9919 2.26308 13.1517 2.57667L14.6367 1.82C14.3171 1.19282 13.8072 0.682906 13.18 0.363333L12.4233 1.84833ZM10.1667 1.66667C10.8808 1.66667 11.3658 1.66667 11.7408 1.69833C12.1058 1.7275 12.2933 1.78167 12.4233 1.84833L13.18 0.363333C12.7758 0.1575 12.345 0.0750001 11.8767 0.0366668C11.4183 1.24176e-07 10.8533 0 10.1667 0V1.66667ZM4.83333 1.66667H10.1667V0H4.83333V1.66667ZM2.57667 1.84833C2.70667 1.78167 2.89333 1.7275 3.25917 1.69833C3.63417 1.66667 4.11917 1.66667 4.83333 1.66667V0C4.14667 0 3.5825 1.24176e-07 3.12333 0.0366668C2.655 0.0750001 2.22417 0.1575 1.82 0.363333L2.57667 1.84833ZM1.84833 2.57667C2.00812 2.26308 2.26308 2.00812 2.57667 1.84833L1.82 0.363333C1.19282 0.682906 0.682906 1.19282 0.363333 1.82L1.84833 2.57667ZM4.51167 11.6667V10C4.06967 10.0001 3.64582 10.1758 3.33333 10.4883L4.51167 11.6667Z" fill="#A79C9C"/>
<path d="M4.16797 4.16675H10.8346M4.16797 7.50008H8.33464" stroke="#A79C9C" stroke-width="2" stroke-linecap="round" stroke-linejoin="round"/>
</svg>
