<svg width="13" height="13" viewBox="0 0 13 13" fill="none" xmlns="http://www.w3.org/2000/svg">
<path d="M12 3.0625H5.8125M7.875 9.9375H1.6875" stroke="#032022" stroke-linecap="round" stroke-linejoin="round"/>
<path d="M9.9375 12C11.0766 12 12 11.0766 12 9.9375C12 8.79841 11.0766 7.875 9.9375 7.875C8.79841 7.875 7.875 8.79841 7.875 9.9375C7.875 11.0766 8.79841 12 9.9375 12Z" stroke="#032022" stroke-linecap="round" stroke-linejoin="round"/>
<path d="M3.0625 5.125C4.20159 5.125 5.125 4.20159 5.125 3.0625C5.125 1.92341 4.20159 1 3.0625 1C1.92341 1 1 1.92341 1 3.0625C1 4.20159 1.92341 5.125 3.0625 5.125Z" stroke="#032022" stroke-linecap="round" stroke-linejoin="round"/>
</svg>
