<svg width="18" height="18" viewBox="0 0 18 18" fill="none" xmlns="http://www.w3.org/2000/svg">
<path d="M5.6468 0H12.7868C15.5068 0 17.7168 2.34 17.7168 5.22V12.78C17.7168 14.1644 17.1974 15.4922 16.2728 16.4711C15.3483 17.45 14.0943 18 12.7868 18H5.6468C2.9268 18 0.716797 15.66 0.716797 12.78V5.22C0.716797 3.83557 1.23621 2.50784 2.16076 1.5289C3.08531 0.549963 4.33928 0 5.6468 0ZM5.4768 1.8C4.66523 1.8 3.88691 2.14136 3.31305 2.74897C2.73919 3.35659 2.4168 4.1807 2.4168 5.04V12.96C2.4168 14.751 3.7853 16.2 5.4768 16.2H12.9568C13.7684 16.2 14.5467 15.8586 15.1205 15.251C15.6944 14.6434 16.0168 13.8193 16.0168 12.96V5.04C16.0168 3.249 14.6483 1.8 12.9568 1.8H5.4768ZM13.6793 3.15C13.9611 3.15 14.2313 3.26853 14.4306 3.4795C14.6299 3.69048 14.7418 3.97663 14.7418 4.275C14.7418 4.57337 14.6299 4.85952 14.4306 5.07049C14.2313 5.28147 13.9611 5.4 13.6793 5.4C13.3975 5.4 13.1273 5.28147 12.928 5.07049C12.7287 4.85952 12.6168 4.57337 12.6168 4.275C12.6168 3.97663 12.7287 3.69048 12.928 3.4795C13.1273 3.26853 13.3975 3.15 13.6793 3.15ZM9.2168 4.5C10.344 4.5 11.425 4.97411 12.222 5.81802C13.019 6.66193 13.4668 7.80653 13.4668 9C13.4668 10.1935 13.019 11.3381 12.222 12.182C11.425 13.0259 10.344 13.5 9.2168 13.5C8.08963 13.5 7.00862 13.0259 6.21159 12.182C5.41456 11.3381 4.9668 10.1935 4.9668 9C4.9668 7.80653 5.41456 6.66193 6.21159 5.81802C7.00862 4.97411 8.08963 4.5 9.2168 4.5ZM9.2168 6.3C8.5405 6.3 7.89189 6.58446 7.41367 7.09081C6.93546 7.59716 6.6668 8.28392 6.6668 9C6.6668 9.71608 6.93546 10.4028 7.41367 10.9092C7.89189 11.4155 8.5405 11.7 9.2168 11.7C9.8931 11.7 10.5417 11.4155 11.0199 10.9092C11.4981 10.4028 11.7668 9.71608 11.7668 9C11.7668 8.28392 11.4981 7.59716 11.0199 7.09081C10.5417 6.58446 9.8931 6.3 9.2168 6.3Z" fill="#4FEC00"/>
</svg>
