<svg width="14" height="13" viewBox="0 0 14 13" fill="none" xmlns="http://www.w3.org/2000/svg">
<path fill-rule="evenodd" clip-rule="evenodd" d="M7.29579 3.68191V5.13673C7.60045 4.67266 8.02038 4.29564 8.51448 4.04258C9.00858 3.78952 9.55992 3.66908 10.1145 3.69306C13.0765 3.69306 13.7168 5.54479 13.7168 7.95376V12.8583H10.9735V8.51014C10.9735 7.47283 10.7644 6.13889 9.14924 6.13889C7.58298 6.13889 7.31551 7.26793 7.31551 8.43298V12.8583H4.58077V3.68191H7.29579ZM2.74361 1.37582C2.74328 1.64758 2.66272 1.9132 2.51205 2.13936C2.36137 2.36553 2.14728 2.54218 1.89662 2.64717C1.64606 2.75132 1.37018 2.77856 1.10409 2.72543C0.837998 2.67231 0.59373 2.54121 0.402372 2.34884C0.210654 2.15634 0.0801313 1.91146 0.0272178 1.64498C-0.0256958 1.3785 0.00136239 1.10233 0.104989 0.851187C0.208616 0.600045 0.384185 0.38515 0.609618 0.233524C0.835051 0.0818982 1.10028 0.000311424 1.37196 -0.000976562C1.55252 -0.000977832 1.73131 0.0346707 1.89806 0.103924C2.06481 0.173178 2.21625 0.274673 2.34369 0.402589C2.47113 0.530504 2.57205 0.682321 2.64068 0.849332C2.70931 1.01634 2.74429 1.19526 2.74361 1.37582Z" fill="#4FEC00"/>
<path d="M2.74331 3.69313H0V12.8584H2.74331V3.69313Z" fill="#4FEC00"/>
</svg>
