<svg width="231" height="63" viewBox="0 0 231 63" fill="none" xmlns="http://www.w3.org/2000/svg">
<path d="M40.3917 49.374C33.6541 57.1276 23.7256 62.0269 12.6533 62.0269V40.3913C16.3065 43.5652 20.6029 46.0318 25.3126 47.5676L23.0611 55.1934L28.4758 48.4453C31.1257 49.0523 33.8842 49.374 36.7193 49.374H40.3917Z" fill="#008900"/>
<path d="M49.3739 0V21.6292C45.3906 18.1763 40.6575 15.5626 35.4493 14.0673L36.9213 9.08493L33.3491 13.5347C30.7631 12.9575 28.0728 12.6507 25.3143 12.6507H21.6377C28.3731 4.90139 38.3016 0 49.3739 0Z" fill="#008900"/>
<path d="M21.6356 12.6528C16.0419 19.0943 12.6529 27.5125 12.6529 36.7125V40.389C4.90139 33.6536 0 23.7252 0 12.6528H21.6356Z" fill="#4FEC00"/>
<path d="M62.0336 49.3739H40.3916C45.9853 42.9367 49.3743 34.5206 49.3743 25.3143V21.6313C57.1279 28.3688 62.0336 38.2973 62.0336 49.3739Z" fill="#4FEC00"/>
<path d="M35.1085 12.7509L33.9348 16.7257L29.8663 30.5097L22.5898 28.3583L32.2584 16.3018L35.1085 12.7509Z" fill="black"/>
<path d="M38.0862 34.6953L29.8874 44.922L25.5654 50.309L27.3632 44.2233L30.8034 32.5503L38.0862 34.6953Z" fill="black"/>
<path d="M74.8711 20.9605H88.0182V24.6115H79.4359V26.5521H85.2788V30.2031H79.4359V32.1436H88.474V35.7967H74.8711V20.9605Z" fill="black"/>
<path d="M100.731 32.1436V30.2499L104.61 31.1616V32.9424C104.61 33.8094 104.352 34.5038 103.835 35.0193C103.317 35.5369 102.625 35.7946 101.758 35.7946H92.4684C91.6015 35.7946 90.9071 35.5369 90.3916 35.0193C89.874 34.5016 89.6162 33.8094 89.6162 32.9424V23.8127C89.6162 22.9458 89.874 22.2535 90.3916 21.7359C90.9092 21.2183 91.6015 20.9605 92.4684 20.9605H101.53C102.397 20.9605 103.089 21.2204 103.607 21.7359C104.124 22.2535 104.382 22.9458 104.382 23.8127V25.5914L100.503 26.5052V24.6094H94.181V32.1415H100.731V32.1436Z" fill="black"/>
<path d="M111.799 35.7946C110.581 35.7946 109.544 35.6114 108.683 35.2472C107.825 34.8808 107.124 34.3717 106.585 33.7178C106.044 33.0638 105.648 32.2799 105.399 31.3661C105.147 30.4544 105.021 29.4575 105.021 28.3776C105.021 27.2358 105.147 26.2048 105.399 25.2846C105.65 24.3644 106.044 23.5848 106.585 22.9458C107.124 22.3067 107.825 21.8168 108.683 21.4739C109.544 21.1309 110.581 20.9605 111.799 20.9605H115.201C116.418 20.9605 117.466 21.1394 118.339 21.4973C119.212 21.8552 119.932 22.3557 120.495 23.0033C121.057 23.6508 121.472 24.4305 121.739 25.3422C122.005 26.2538 122.139 27.2678 122.139 28.3776C122.139 29.4277 122.005 30.4054 121.739 31.3107C121.472 32.216 121.057 32.9999 120.495 33.6624C119.932 34.3248 119.212 34.8446 118.339 35.2259C117.463 35.6072 116.418 35.7967 115.201 35.7967H111.799V35.7946ZM115.293 32.1436C115.734 32.1436 116.096 32.0371 116.377 31.8241C116.658 31.6111 116.88 31.3299 117.04 30.9806C117.199 30.6312 117.308 30.2308 117.37 29.7813C117.432 29.334 117.461 28.8654 117.461 28.3776C117.461 27.8898 117.432 27.4233 117.37 26.9738C117.308 26.5244 117.199 26.126 117.04 25.7767C116.88 25.4252 116.658 25.1462 116.377 24.9332C116.094 24.7202 115.734 24.6137 115.293 24.6137H112.098C111.657 24.6137 111.284 24.7202 110.979 24.9332C110.675 25.1462 110.428 25.4274 110.238 25.7767C110.049 26.126 109.91 26.5265 109.827 26.9738C109.744 27.4233 109.701 27.8919 109.701 28.3776C109.701 28.8632 109.744 29.334 109.827 29.7813C109.91 30.2308 110.046 30.6312 110.238 30.9806C110.428 31.332 110.675 31.6132 110.979 31.8241C111.282 32.0371 111.657 32.1436 112.098 32.1436H115.293Z" fill="black"/>
<path d="M129.9 20.9605H134.465L138.802 28.1049L143.139 20.9605H147.704V35.7967H143.139V28.6992L139.876 35.7967H137.731L134.467 28.6992V35.7967H129.903V20.9605H129.9Z" fill="black"/>
<path d="M156.307 35.7946C155.089 35.7946 154.052 35.6114 153.191 35.2472C152.333 34.8808 151.632 34.3717 151.093 33.7178C150.552 33.0638 150.156 32.2799 149.906 31.3661C149.655 30.4544 149.529 29.4575 149.529 28.3776C149.529 27.2358 149.655 26.2048 149.906 25.2846C150.158 24.3644 150.552 23.5848 151.093 22.9458C151.632 22.3067 152.333 21.8168 153.191 21.4739C154.052 21.1309 155.089 20.9605 156.307 20.9605H159.709C160.925 20.9605 161.973 21.1394 162.847 21.4973C163.72 21.8552 164.44 22.3557 165.002 23.0033C165.565 23.6508 165.98 24.4305 166.246 25.3422C166.513 26.2538 166.647 27.2678 166.647 28.3776C166.647 29.4277 166.513 30.4054 166.246 31.3107C165.98 32.216 165.565 32.9999 165.002 33.6624C164.44 34.3248 163.72 34.8446 162.847 35.2259C161.971 35.6072 160.925 35.7967 159.709 35.7967H156.307V35.7946ZM159.799 32.1436C160.24 32.1436 160.602 32.0371 160.883 31.8241C161.164 31.6111 161.386 31.3299 161.545 30.9806C161.705 30.6312 161.814 30.2308 161.875 29.7813C161.937 29.334 161.967 28.8654 161.967 28.3776C161.967 27.8898 161.937 27.4233 161.875 26.9738C161.814 26.5244 161.705 26.126 161.545 25.7767C161.386 25.4252 161.164 25.1462 160.883 24.9332C160.6 24.7202 160.24 24.6137 159.799 24.6137H156.603C156.162 24.6137 155.79 24.7202 155.485 24.9332C155.18 25.1462 154.933 25.4274 154.744 25.7767C154.554 26.126 154.416 26.5265 154.333 26.9738C154.25 27.4233 154.207 27.8919 154.207 28.3776C154.207 28.8632 154.25 29.334 154.333 29.7813C154.416 30.2308 154.552 30.6312 154.744 30.9806C154.933 31.332 155.18 31.6132 155.485 31.8241C155.788 32.0371 156.162 32.1436 156.603 32.1436H159.799Z" fill="black"/>
<path d="M167.105 20.9605H180.365V24.6115H175.801L174.18 30.2031H176.188L173.653 35.7946H176.233L169.591 41.0666L171.532 35.7946H168.724L171.259 30.2031H169.615L171.236 24.6115H167.105V20.9605Z" fill="black"/>
<path d="M187.648 35.7946C186.43 35.7946 185.392 35.6114 184.532 35.2472C183.673 34.8808 182.973 34.3717 182.434 33.7178C181.893 33.0638 181.496 32.2799 181.247 31.3661C180.996 30.4544 180.87 29.4575 180.87 28.3776C180.87 27.2358 180.996 26.2048 181.247 25.2846C181.499 24.3644 181.893 23.5848 182.434 22.9458C182.973 22.3067 183.673 21.8168 184.532 21.4739C185.392 21.1309 186.43 20.9605 187.648 20.9605H191.05C192.266 20.9605 193.314 21.1394 194.188 21.4973C195.061 21.8552 195.781 22.3557 196.343 23.0033C196.906 23.6508 197.321 24.4305 197.587 25.3422C197.854 26.2538 197.988 27.2678 197.988 28.3776C197.988 29.4277 197.854 30.4054 197.587 31.3107C197.321 32.216 196.906 32.9999 196.343 33.6624C195.781 34.3248 195.061 34.8446 194.188 35.2259C193.312 35.6072 192.266 35.7967 191.05 35.7967H187.648V35.7946ZM191.139 32.1436C191.58 32.1436 191.942 32.0371 192.224 31.8241C192.505 31.6111 192.726 31.3299 192.886 30.9806C193.046 30.6312 193.154 30.2308 193.216 29.7813C193.278 29.334 193.308 28.8654 193.308 28.3776C193.308 27.8898 193.278 27.4233 193.216 26.9738C193.154 26.5244 193.046 26.126 192.886 25.7767C192.726 25.4252 192.505 25.1462 192.224 24.9332C191.94 24.7202 191.58 24.6137 191.139 24.6137H187.944C187.503 24.6137 187.131 24.7202 186.826 24.9332C186.521 25.1462 186.274 25.4274 186.085 25.7767C185.895 26.126 185.757 26.5265 185.674 26.9738C185.59 27.4233 185.548 27.8919 185.548 28.3776C185.548 28.8632 185.59 29.334 185.674 29.7813C185.757 30.2308 185.893 30.6312 186.085 30.9806C186.274 31.332 186.521 31.6132 186.826 31.8241C187.128 32.0371 187.503 32.1436 187.944 32.1436H191.139Z" fill="black"/>
<path d="M199.814 20.9605H209.263C210.999 20.9605 212.283 21.4014 213.12 22.2854C213.958 23.1673 214.375 24.4241 214.375 26.0515C214.375 27.3445 214.109 28.4074 213.576 29.236C213.044 30.0646 212.23 30.6312 211.133 30.9358L214.671 35.867H209.604L206.225 31.1659H204.376V35.7989H199.812V20.9626L199.814 20.9605ZM204.378 27.5106H207.757C208.396 27.5106 208.879 27.3615 209.205 27.0654C209.533 26.7693 209.695 26.4306 209.695 26.0493C209.695 25.6681 209.531 25.3528 209.205 25.0567C208.879 24.7606 208.396 24.6115 207.757 24.6115H204.378V27.5106Z" fill="black"/>
<path d="M222.301 35.7947C220.171 35.7947 218.627 35.5774 217.668 35.1429C216.71 34.7083 216.23 33.9756 216.23 32.9403V31.183L220.109 30.2692V32.1415H226.431V30.201H221.592C220.77 30.201 220.024 30.1243 219.355 29.9731C218.684 29.8218 218.107 29.562 217.621 29.1977C217.133 28.8335 216.756 28.3457 216.492 27.7386C216.226 27.1294 216.092 26.3774 216.092 25.4785C216.092 24.5796 216.228 23.817 216.503 23.2291C216.778 22.6434 217.185 22.1833 217.723 21.8488C218.265 21.5144 218.942 21.2822 219.756 21.1523C220.569 21.0223 221.517 20.9584 222.597 20.9584H224.242C226.372 20.9584 228.008 21.1757 229.149 21.6102C230.291 22.0448 230.862 22.7776 230.862 23.8128V25.5914L226.983 26.5052V24.6094H220.661V26.55H225.317C226.199 26.55 226.992 26.6331 227.69 26.8013C228.391 26.9696 228.987 27.238 229.482 27.6108C229.976 27.9835 230.353 28.4628 230.613 29.0486C230.871 29.6344 231 30.3458 231 31.183C231 32.1266 230.866 32.8956 230.6 33.4878C230.334 34.0799 229.929 34.5486 229.39 34.8915C228.851 35.2323 228.174 35.4688 227.36 35.5987C226.546 35.7286 225.592 35.7925 224.495 35.7925H222.303L222.301 35.7947Z" fill="black"/>
</svg>
