<svg width="191" height="52" viewBox="0 0 191 52" fill="none" xmlns="http://www.w3.org/2000/svg">
<path d="M33.3971 40.8245C27.8262 47.2355 19.617 51.2864 10.4619 51.2864V33.3972C13.4825 36.0215 17.035 38.061 20.9291 39.3309L19.0675 45.6362L23.5446 40.0566C25.7356 40.5585 28.0164 40.8245 30.3607 40.8245H33.3971Z" fill="white"/>
<path d="M40.8248 0V17.8839C37.5312 15.0289 33.6177 12.8678 29.3114 11.6314L30.5284 7.51179L27.5748 11.1911C25.4366 10.7138 23.2121 10.4601 20.9313 10.4601H17.8914C23.4605 4.05267 31.6697 0 40.8248 0Z" fill="white"/>
<path d="M17.8892 10.4619C13.2641 15.788 10.4619 22.7485 10.4619 30.3554V33.3953C4.05267 27.8262 0 19.617 0 10.4619H17.8892Z" fill="white"/>
<path d="M51.2914 40.8243H33.397C38.0221 35.5018 40.8242 28.543 40.8242 20.9308V17.8856C47.2352 23.4565 51.2914 31.6658 51.2914 40.8243Z" fill="white"/>
<path d="M29.0287 10.543L28.0582 13.8295L24.6942 25.2266L18.6777 23.4478L26.6721 13.479L29.0287 10.543Z" fill="white"/>
<path d="M31.4911 28.6875L24.712 37.1434L21.1384 41.5976L22.6249 36.5657L25.4694 26.9139L31.4911 28.6875Z" fill="white"/>
<path d="M61.9075 17.3309H72.778V20.3497H65.6819V21.9543H70.513V24.9731H65.6819V26.5776H73.1549V29.5981H61.9075V17.3309Z" fill="white"/>
<path d="M83.2882 26.5776V25.0118L86.4954 25.7656V27.238C86.4954 27.9549 86.2823 28.5291 85.8543 28.9553C85.4264 29.3833 84.8539 29.5964 84.1371 29.5964H76.4562C75.7394 29.5964 75.1652 29.3833 74.739 28.9553C74.311 28.5273 74.0979 27.9549 74.0979 27.238V19.6893C74.0979 18.9724 74.311 18.4 74.739 17.972C75.167 17.544 75.7394 17.3309 76.4562 17.3309H83.9487C84.6655 17.3309 85.2379 17.5458 85.6659 17.972C86.0939 18.4 86.307 18.9724 86.307 19.6893V21.1599L83.0997 21.9155V20.348H77.8723V26.5758H83.2882V26.5776Z" fill="white"/>
<path d="M92.4403 29.5964C91.4328 29.5964 90.5751 29.4449 89.8636 29.1437C89.1538 28.8408 88.5743 28.4199 88.1287 27.8791C87.6813 27.3384 87.3537 26.6903 87.1477 25.9347C86.9399 25.1809 86.8359 24.3566 86.8359 23.4637C86.8359 22.5196 86.9399 21.6672 87.1477 20.9063C87.3555 20.1454 87.6813 19.5008 88.1287 18.9724C88.5743 18.4441 89.1538 18.039 89.8636 17.7554C90.5751 17.4718 91.4328 17.3309 92.4403 17.3309H95.253C96.2587 17.3309 97.1252 17.4789 97.8474 17.7748C98.5695 18.0707 99.1648 18.4846 99.6298 19.02C100.095 19.5554 100.438 20.2 100.658 20.9539C100.879 21.7077 100.989 22.546 100.989 23.4637C100.989 24.332 100.879 25.1404 100.658 25.8889C100.438 26.6375 100.095 27.2856 99.6298 27.8334C99.1648 28.3811 98.5695 28.8109 97.8474 29.1261C97.1235 29.4414 96.2587 29.5981 95.253 29.5981H92.4403V29.5964ZM95.3288 26.5776C95.6933 26.5776 95.9928 26.4895 96.2252 26.3134C96.4577 26.1373 96.6409 25.9048 96.773 25.6159C96.9051 25.3271 96.9949 24.996 97.046 24.6243C97.0971 24.2545 97.1217 23.867 97.1217 23.4637C97.1217 23.0603 97.0971 22.6746 97.046 22.303C96.9949 21.9314 96.9051 21.602 96.773 21.3132C96.6409 21.0225 96.4577 20.7918 96.2252 20.6157C95.991 20.4396 95.6933 20.3515 95.3288 20.3515H92.6869C92.3223 20.3515 92.0141 20.4396 91.7622 20.6157C91.5103 20.7918 91.306 21.0243 91.1493 21.3132C90.9925 21.602 90.878 21.9331 90.8094 22.303C90.7407 22.6746 90.7054 23.0621 90.7054 23.4637C90.7054 23.8652 90.7407 24.2545 90.8094 24.6243C90.878 24.996 90.9908 25.3271 91.1493 25.6159C91.306 25.9065 91.5103 26.139 91.7622 26.3134C92.0123 26.4895 92.3223 26.5776 92.6869 26.5776H95.3288Z" fill="white"/>
<path d="M107.407 17.3309H111.181L114.767 23.2382L118.353 17.3309H122.128V29.5981H118.353V23.7296L115.655 29.5981H113.881L111.183 23.7296V29.5981H107.409V17.3309H107.407Z" fill="white"/>
<path d="M129.242 29.5964C128.234 29.5964 127.377 29.4449 126.665 29.1437C125.955 28.8408 125.376 28.4199 124.93 27.8791C124.483 27.3384 124.155 26.6903 123.949 25.9347C123.741 25.1809 123.637 24.3566 123.637 23.4637C123.637 22.5196 123.741 21.6672 123.949 20.9063C124.157 20.1454 124.483 19.5008 124.93 18.9724C125.376 18.4441 125.955 18.039 126.665 17.7554C127.377 17.4718 128.234 17.3309 129.242 17.3309H132.055C133.06 17.3309 133.927 17.4789 134.649 17.7748C135.371 18.0707 135.966 18.4846 136.431 19.02C136.896 19.5554 137.24 20.2 137.46 20.9539C137.68 21.7077 137.791 22.546 137.791 23.4637C137.791 24.332 137.68 25.1404 137.46 25.8889C137.24 26.6375 136.896 27.2856 136.431 27.8334C135.966 28.3811 135.371 28.8109 134.649 29.1261C133.925 29.4414 133.06 29.5981 132.055 29.5981H129.242V29.5964ZM132.129 26.5776C132.493 26.5776 132.793 26.4895 133.025 26.3134C133.257 26.1373 133.441 25.9048 133.573 25.6159C133.705 25.3271 133.795 24.996 133.846 24.6243C133.897 24.2545 133.921 23.867 133.921 23.4637C133.921 23.0603 133.897 22.6746 133.846 22.303C133.795 21.9314 133.705 21.602 133.573 21.3132C133.441 21.0225 133.257 20.7918 133.025 20.6157C132.791 20.4396 132.493 20.3515 132.129 20.3515H129.487C129.122 20.3515 128.814 20.4396 128.562 20.6157C128.31 20.7918 128.106 21.0243 127.949 21.3132C127.792 21.602 127.678 21.9331 127.609 22.303C127.54 22.6746 127.505 23.0621 127.505 23.4637C127.505 23.8652 127.54 24.2545 127.609 24.6243C127.678 24.996 127.791 25.3271 127.949 25.6159C128.106 25.9065 128.31 26.139 128.562 26.3134C128.812 26.4895 129.122 26.5776 129.487 26.5776H132.129Z" fill="white"/>
<path d="M138.17 17.3309H149.134V20.3497H145.359L144.019 24.9731H145.68L143.584 29.5964H145.717L140.225 33.9555L141.83 29.5964H139.508L141.604 24.9731H140.244L141.585 20.3497H138.17V17.3309Z" fill="white"/>
<path d="M155.155 29.5964C154.148 29.5964 153.29 29.4449 152.579 29.1437C151.869 28.8408 151.289 28.4199 150.844 27.8791C150.396 27.3384 150.069 26.6903 149.863 25.9347C149.655 25.1809 149.551 24.3566 149.551 23.4637C149.551 22.5196 149.655 21.6672 149.863 20.9063C150.071 20.1454 150.396 19.5008 150.844 18.9724C151.289 18.4441 151.869 18.039 152.579 17.7554C153.29 17.4718 154.148 17.3309 155.155 17.3309H157.968C158.974 17.3309 159.84 17.4789 160.562 17.7748C161.285 18.0707 161.88 18.4846 162.345 19.02C162.81 19.5554 163.153 20.2 163.373 20.9539C163.594 21.7077 163.705 22.546 163.705 23.4637C163.705 24.332 163.594 25.1404 163.373 25.8889C163.153 26.6375 162.81 27.2856 162.345 27.8334C161.88 28.3811 161.285 28.8109 160.562 29.1261C159.839 29.4414 158.974 29.5981 157.968 29.5981H155.155V29.5964ZM158.042 26.5776C158.407 26.5776 158.706 26.4895 158.939 26.3134C159.171 26.1373 159.354 25.9048 159.486 25.6159C159.618 25.3271 159.708 24.996 159.759 24.6243C159.81 24.2545 159.835 23.867 159.835 23.4637C159.835 23.0603 159.81 22.6746 159.759 22.303C159.708 21.9314 159.618 21.602 159.486 21.3132C159.354 21.0225 159.171 20.7918 158.939 20.6157C158.704 20.4396 158.407 20.3515 158.042 20.3515H155.4C155.036 20.3515 154.727 20.4396 154.476 20.6157C154.224 20.7918 154.019 21.0243 153.863 21.3132C153.706 21.602 153.591 21.9331 153.523 22.303C153.454 22.6746 153.419 23.0621 153.419 23.4637C153.419 23.8652 153.454 24.2545 153.523 24.6243C153.591 24.996 153.704 25.3271 153.863 25.6159C154.019 25.9065 154.224 26.139 154.476 26.3134C154.726 26.4895 155.036 26.5776 155.4 26.5776H158.042Z" fill="white"/>
<path d="M165.214 17.3309H173.027C174.462 17.3309 175.524 17.6955 176.217 18.4264C176.909 19.1556 177.254 20.1947 177.254 21.5404C177.254 22.6094 177.034 23.4883 176.593 24.1734C176.153 24.8586 175.48 25.3271 174.573 25.5789L177.499 29.6563H173.309L170.515 25.7691H168.987V29.5999H165.212V17.3327L165.214 17.3309ZM168.988 22.7468H171.782C172.31 22.7468 172.71 22.6235 172.979 22.3787C173.251 22.1339 173.384 21.8539 173.384 21.5386C173.384 21.2233 173.249 20.9627 172.979 20.7178C172.71 20.473 172.31 20.3497 171.782 20.3497H168.988V22.7468Z" fill="white"/>
<path d="M183.807 29.5964C182.046 29.5964 180.769 29.4168 179.976 29.0575C179.184 28.6982 178.787 28.0923 178.787 27.2363V25.7833L181.995 25.0277V26.5759H187.222V24.9714H183.22C182.541 24.9714 181.924 24.9079 181.371 24.7829C180.816 24.6578 180.339 24.443 179.937 24.1418C179.534 23.8406 179.222 23.4373 179.004 22.9353C178.784 22.4316 178.673 21.8099 178.673 21.0666C178.673 20.3234 178.786 19.6928 179.013 19.2067C179.24 18.7224 179.576 18.342 180.022 18.0654C180.469 17.7889 181.029 17.5969 181.702 17.4895C182.375 17.3821 183.159 17.3292 184.052 17.3292H185.411C187.173 17.3292 188.525 17.5089 189.469 17.8682C190.413 18.2275 190.885 18.8333 190.885 19.6893V21.16L187.678 21.9156V20.348H182.451V21.9525H186.301C187.03 21.9525 187.685 22.0212 188.263 22.1604C188.842 22.2995 189.336 22.5214 189.744 22.8297C190.153 23.1379 190.465 23.5342 190.679 24.0185C190.893 24.5029 191 25.0911 191 25.7833C191 26.5635 190.889 27.1994 190.669 27.689C190.449 28.1786 190.114 28.5661 189.668 28.8497C189.223 29.1315 188.663 29.327 187.99 29.4344C187.317 29.5418 186.528 29.5947 185.621 29.5947H183.809L183.807 29.5964Z" fill="white"/>
</svg>
