<svg width="67" height="67" viewBox="0 0 67 67" fill="none" xmlns="http://www.w3.org/2000/svg">
<circle cx="33.5" cy="33.5" r="33.5" fill="#008900"/>
<path d="M42.7226 33.2171L28.0845 46.7154C27.9294 46.8579 27.7247 46.9531 27.5012 46.9866C27.2777 47.0202 27.0476 46.9902 26.8456 46.9013C26.6436 46.8124 26.4807 46.6694 26.3814 46.4938C26.2821 46.3183 26.2519 46.1197 26.2953 45.928L28.2113 37.6794L20.6793 35.2452C20.5175 35.1931 20.3732 35.1074 20.2594 34.9956C20.1455 34.8839 20.0656 34.7496 20.0268 34.6047C19.9879 34.4599 19.9914 34.309 20.0368 34.1656C20.0823 34.0222 20.1683 33.8907 20.2872 33.7829L34.9252 20.2846C35.0803 20.1421 35.2851 20.0469 35.5086 20.0134C35.7321 19.9798 35.9622 20.0098 36.1642 20.0987C36.3662 20.1876 36.5291 20.3306 36.6284 20.5062C36.7276 20.6817 36.7579 20.8803 36.7145 21.072L34.7932 29.3296L42.3253 31.7604C42.4859 31.8128 42.629 31.8985 42.7419 32.0098C42.8549 32.1211 42.9343 32.2547 42.973 32.3987C43.0118 32.5427 43.0087 32.6927 42.9641 32.8354C42.9196 32.9782 42.8348 33.1092 42.7174 33.2171H42.7226Z" fill="white"/>
</svg>
