<svg width="17" height="11" viewBox="0 0 17 11" fill="none" xmlns="http://www.w3.org/2000/svg">
<path d="M8.5 3.3C7.88518 3.3 7.29554 3.53178 6.8608 3.94436C6.42605 4.35695 6.18182 4.91652 6.18182 5.5C6.18182 6.08348 6.42605 6.64306 6.8608 7.05564C7.29554 7.46822 7.88518 7.7 8.5 7.7C9.11482 7.7 9.70446 7.46822 10.1392 7.05564C10.5739 6.64306 10.8182 6.08348 10.8182 5.5C10.8182 4.91652 10.5739 4.35695 10.1392 3.94436C9.70446 3.53178 9.11482 3.3 8.5 3.3ZM8.5 9.16667C7.4753 9.16667 6.49257 8.78036 5.768 8.09272C5.04342 7.40509 4.63636 6.47246 4.63636 5.5C4.63636 4.52754 5.04342 3.59491 5.768 2.90728C6.49257 2.21964 7.4753 1.83333 8.5 1.83333C9.5247 1.83333 10.5074 2.21964 11.232 2.90728C11.9566 3.59491 12.3636 4.52754 12.3636 5.5C12.3636 6.47246 11.9566 7.40509 11.232 8.09272C10.5074 8.78036 9.5247 9.16667 8.5 9.16667ZM8.5 0C4.63636 0 1.33682 2.28067 0 5.5C1.33682 8.71933 4.63636 11 8.5 11C12.3636 11 15.6632 8.71933 17 5.5C15.6632 2.28067 12.3636 0 8.5 0Z" fill="#A79C9C"/>
</svg>
