<svg width="15" height="11" viewBox="0 0 15 11" fill="none" xmlns="http://www.w3.org/2000/svg">
<path d="M5.94446 5.1667C5.94446 5.57926 6.10835 5.97492 6.40007 6.26664C6.69179 6.55837 7.08745 6.72226 7.50001 6.72226C7.91257 6.72226 8.30823 6.55837 8.59996 6.26664C8.89168 5.97492 9.05557 5.57926 9.05557 5.1667C9.05557 4.75414 8.89168 4.35848 8.59996 4.06676C8.30823 3.77503 7.91257 3.61115 7.50001 3.61115C7.08745 3.61115 6.69179 3.77503 6.40007 4.06676C6.10835 4.35848 5.94446 4.75414 5.94446 5.1667Z" stroke="white" stroke-linecap="round" stroke-linejoin="round"/>
<path d="M14.5 5.16667C12.6333 8.27778 10.3 9.83333 7.5 9.83333C4.7 9.83333 2.36667 8.27778 0.5 5.16667C2.36667 2.05556 4.7 0.5 7.5 0.5C10.3 0.5 12.6333 2.05556 14.5 5.16667Z" stroke="white" stroke-linecap="round" stroke-linejoin="round"/>
</svg>
