<svg width="27" height="28" viewBox="0 0 27 28" fill="none" xmlns="http://www.w3.org/2000/svg">
<path d="M13.5039 0C15.5432 0.00122187 17.5557 0.481257 19.3905 1.40408C21.2252 2.32691 22.8345 3.66856 24.0977 5.32834C25.3608 6.98813 26.2449 8.92296 26.6837 10.9876C27.1225 13.0523 27.1045 15.1932 26.6312 17.2496C26.1578 19.306 25.2413 21.2246 23.9506 22.8614C22.6598 24.4981 21.0282 25.8106 19.1782 26.7001C17.3283 27.5897 15.308 28.0334 13.269 27.9979C11.23 27.9623 9.22526 27.4484 7.4052 26.4948L7.20096 26.3811L1.04824 27.9736C0.92983 28.0045 0.806369 28.0083 0.686377 27.9849C0.566386 27.9615 0.45272 27.9114 0.353225 27.838C0.253731 27.7647 0.170775 27.6698 0.110084 27.5599C0.0493919 27.4501 0.0124091 27.3279 0.00168787 27.2018V27.0583L0.02532 26.9131L1.56139 20.5361L1.45505 20.3261C0.684513 18.7489 0.209124 17.0346 0.0540157 15.2739L0.0118159 14.6054L0 13.9999C0 10.2869 1.42273 6.72597 3.9552 4.10048C6.48768 1.47499 9.92245 0 13.5039 0ZM13.5039 1.74999C11.442 1.74964 9.41583 2.3087 7.62684 3.3716C5.83786 4.4345 4.3483 5.96425 3.3062 7.80882C2.2641 9.65339 1.70573 11.7486 1.68658 13.8862C1.66743 16.0237 2.18817 18.1293 3.19705 19.9936C3.27537 20.1386 3.31226 20.3037 3.30339 20.4696L3.27976 20.6341L2.00364 25.9208L7.10812 24.6014C7.21187 24.5747 7.31956 24.5688 7.42546 24.5839L7.57907 24.6206L7.72592 24.6889C9.30139 25.6032 11.058 26.1311 12.861 26.232C14.6639 26.3329 16.4651 26.0041 18.1264 25.2709C19.7877 24.5376 21.2647 23.4194 22.4442 22.0021C23.6237 20.5848 24.4742 18.9062 24.9304 17.095C25.3866 15.2839 25.4363 13.3885 25.0759 11.5543C24.7154 9.72009 23.9543 7.99594 22.8509 6.51423C21.7476 5.03251 20.3314 3.83265 18.7111 3.00676C17.0908 2.18088 15.3095 1.75095 13.5039 1.74999ZM14.3479 15.7499C14.5588 15.7495 14.7622 15.831 14.9181 15.9783C15.0739 16.1256 15.1709 16.3281 15.19 16.5458C15.2091 16.7636 15.1488 16.9809 15.021 17.1549C14.8933 17.3288 14.7073 17.4469 14.4998 17.4859L14.3479 17.4999H9.28393C9.07303 17.5003 8.86962 17.4188 8.71376 17.2715C8.5579 17.1242 8.46089 16.9217 8.44184 16.704C8.42278 16.4862 8.48306 16.2689 8.6108 16.0949C8.73854 15.921 8.92448 15.8029 9.13201 15.7639L9.28393 15.7499H14.3479ZM17.7239 10.4999C17.9348 10.4995 18.1382 10.581 18.294 10.7283C18.4499 10.8756 18.5469 11.0781 18.566 11.2959C18.585 11.5136 18.5247 11.7309 18.397 11.9049C18.2693 12.0789 18.0833 12.197 17.8758 12.2359L17.7239 12.2499H9.28393C9.07303 12.2503 8.86962 12.1689 8.71376 12.0215C8.5579 11.8742 8.46089 11.6718 8.44184 11.454C8.42278 11.2362 8.48306 11.019 8.6108 10.845C8.73854 10.671 8.92448 10.5529 9.13201 10.5139L9.28393 10.4999H17.7239Z" fill="white"/>
</svg>
