<svg width="21" height="20" viewBox="0 0 21 20" fill="none" xmlns="http://www.w3.org/2000/svg">
<path d="M14.0009 14.2139L15.8092 12.491C16.0528 12.2618 16.3609 12.1049 16.6962 12.0394C17.0316 11.9739 17.3796 12.0025 17.6982 12.1218L19.9021 12.9602C20.224 13.0847 20.5001 13.2972 20.6955 13.5709C20.8909 13.8447 20.9968 14.1674 21 14.4985V18.3442C20.9981 18.5694 20.9484 18.7919 20.8539 18.9983C20.7594 19.2047 20.6221 19.3908 20.4501 19.5453C20.2781 19.6998 20.0751 19.8195 19.8533 19.8973C19.6315 19.9751 19.3955 20.0093 19.1594 19.9979C3.71616 19.0826 0.600064 6.62239 0.0107509 1.85368C-0.0166054 1.6195 0.00838933 1.38246 0.0840907 1.15814C0.159792 0.933831 0.284485 0.727331 0.449965 0.55223C0.615445 0.377128 0.817963 0.237394 1.04419 0.142219C1.27043 0.0470438 1.51525 -0.00141458 1.76255 3.14343e-05H5.6617C6.00965 0.0010127 6.34933 0.101149 6.63705 0.287561C6.92478 0.473973 7.14739 0.738135 7.27626 1.04607L8.15619 3.14584C8.28556 3.44817 8.31857 3.78011 8.25109 4.10021C8.18361 4.4203 8.01863 4.71436 7.77677 4.94565L5.96847 6.66854C5.96847 6.66854 7.00986 13.3832 14.0009 14.2139Z" fill="white"/>
</svg>
