<svg width="31" height="32" viewBox="0 0 31 32" fill="none" xmlns="http://www.w3.org/2000/svg">
<path d="M15.4988 20.2963C17.8712 20.2963 19.7944 18.3731 19.7944 16.0007C19.7944 13.6283 17.8712 11.7051 15.4988 11.7051C13.1263 11.7051 11.2031 13.6283 11.2031 16.0007C11.2031 18.3731 13.1263 20.2963 15.4988 20.2963Z" stroke="#FF9900" stroke-width="2.5"/>
<path d="M18.0273 1.89929C17.5018 1.68164 16.8345 1.68164 15.5 1.68164C14.1655 1.68164 13.4982 1.68164 12.9727 1.89929C12.625 2.04321 12.3091 2.25424 12.0431 2.52032C11.777 2.78641 11.5659 3.10232 11.422 3.45001C11.2903 3.76932 11.2373 4.14304 11.2173 4.68572C11.2079 5.07795 11.0993 5.46141 10.9014 5.80023C10.7036 6.13904 10.4231 6.42214 10.0861 6.62305C9.74358 6.81459 9.35809 6.91611 8.96568 6.91812C8.57326 6.92012 8.18676 6.82254 7.84232 6.6345C7.36121 6.37963 7.01327 6.2393 6.66818 6.19348C5.91547 6.0945 5.15426 6.29845 4.55187 6.76051C4.10226 7.10845 3.7672 7.6855 3.09995 8.84103C2.43269 9.99655 2.09763 10.5736 2.02461 11.1392C1.9754 11.5121 2.00015 11.8911 2.09744 12.2545C2.19473 12.6178 2.36266 12.9585 2.59163 13.2569C2.80355 13.5319 3.09995 13.7624 3.55958 14.0516C4.23686 14.4769 4.67215 15.2014 4.67215 16.0004C4.67215 16.7994 4.23686 17.5239 3.55958 17.9478C3.09995 18.2384 2.80212 18.469 2.59163 18.7439C2.36266 19.0423 2.19473 19.383 2.09744 19.7464C2.00015 20.1097 1.9754 20.4887 2.02461 20.8616C2.09906 21.4258 2.43269 22.0043 3.09851 23.1598C3.7672 24.3153 4.10083 24.8924 4.55187 25.2403C4.85032 25.4693 5.19097 25.6372 5.55433 25.7345C5.9177 25.8318 6.29668 25.8565 6.66962 25.8073C7.01327 25.7615 7.36121 25.6212 7.84232 25.3663C8.18676 25.1783 8.57326 25.0807 8.96568 25.0827C9.35809 25.0847 9.74358 25.1862 10.0861 25.3778C10.7777 25.7787 11.1886 26.5161 11.2173 27.3151C11.2373 27.8592 11.2889 28.2315 11.422 28.5508C11.5659 28.8985 11.777 29.2144 12.0431 29.4805C12.3091 29.7466 12.625 29.9576 12.9727 30.1015C13.4982 30.3192 14.1655 30.3192 15.5 30.3192C16.8345 30.3192 17.5018 30.3192 18.0273 30.1015C18.375 29.9576 18.6909 29.7466 18.9569 29.4805C19.223 29.2144 19.4341 28.8985 19.578 28.5508C19.7097 28.2315 19.7627 27.8592 19.7827 27.3151C19.8114 26.5161 20.2223 25.7773 20.9139 25.3778C21.2564 25.1862 21.6419 25.0847 22.0343 25.0827C22.4267 25.0807 22.8132 25.1783 23.1577 25.3663C23.6388 25.6212 23.9867 25.7615 24.3304 25.8073C24.7033 25.8565 25.0823 25.8318 25.4457 25.7345C25.809 25.6372 26.1497 25.4693 26.4481 25.2403C26.8992 24.8938 27.2328 24.3153 27.9001 23.1598C28.5673 22.0043 28.9024 21.4272 28.9754 20.8616C29.0246 20.4887 28.9999 20.1097 28.9026 19.7464C28.8053 19.383 28.6373 19.0423 28.4084 18.7439C28.1965 18.469 27.9001 18.2384 27.4404 17.9492C27.1053 17.745 26.8274 17.4591 26.6328 17.1183C26.4382 16.7775 26.3333 16.3928 26.3279 16.0004C26.3279 15.2014 26.7631 14.4769 27.4404 14.0531C27.9001 13.7624 28.1979 13.5319 28.4084 13.2569C28.6373 12.9585 28.8053 12.6178 28.9026 12.2545C28.9999 11.8911 29.0246 11.5121 28.9754 11.1392C28.9009 10.575 28.5673 9.99655 27.9015 8.84103C27.2328 7.6855 26.8992 7.10845 26.4481 6.76051C26.1497 6.53154 25.809 6.36361 25.4457 6.26632C25.0823 6.16903 24.7033 6.14428 24.3304 6.19348C23.9867 6.2393 23.6388 6.37963 23.1562 6.6345C22.812 6.82228 22.4257 6.91973 22.0336 6.91772C21.6415 6.91572 21.2562 6.81434 20.9139 6.62305C20.5769 6.42214 20.2964 6.13904 20.0986 5.80023C19.9007 5.46141 19.7921 5.07795 19.7827 4.68572C19.7627 4.14161 19.7111 3.76932 19.578 3.45001C19.4341 3.10232 19.223 2.78641 18.9569 2.52032C18.6909 2.25424 18.375 2.04321 18.0273 1.89929Z" stroke="#FF9900" stroke-width="2.5"/>
</svg>
