<svg width="14" height="16" viewBox="0 0 14 16" fill="none" xmlns="http://www.w3.org/2000/svg">
<path d="M11.0306 2.50667C10.4638 1.813 10.1515 0.922162 10.1517 0H7.58988V11.0222C7.57012 11.6187 7.33525 12.1837 6.93471 12.5982C6.53418 13.0127 5.99925 13.2444 5.44256 13.2444C4.26527 13.2444 3.28695 12.2133 3.28695 10.9333C3.28695 9.40444 4.66323 8.25778 6.08096 8.72889V5.92C3.22062 5.51111 0.716797 7.89333 0.716797 10.9333C0.716797 13.8933 3.00506 16 5.43427 16C8.03759 16 10.1517 13.7333 10.1517 10.9333V5.34222C11.1906 6.14209 12.4378 6.57124 13.7168 6.56889V3.82222C13.7168 3.82222 12.1581 3.90222 11.0306 2.50667Z" fill="#4FEC00"/>
</svg>
