<svg width="14" height="13" viewBox="0 0 14 13" fill="none" xmlns="http://www.w3.org/2000/svg">
<path fill-rule="evenodd" clip-rule="evenodd" d="M7.29496 3.68191V5.13673C7.59962 4.67266 8.01955 4.29564 8.51365 4.04258C9.00775 3.78952 9.55909 3.66908 10.1137 3.69306C13.0756 3.69306 13.716 5.54479 13.716 7.95376V12.8583H10.9727V8.51014C10.9727 7.47283 10.7635 6.13889 9.14841 6.13889C7.58215 6.13889 7.31467 7.26793 7.31467 8.43298V12.8583H4.57994V3.68191H7.29496ZM2.74278 1.37582C2.74244 1.64758 2.66189 1.9132 2.51121 2.13936C2.36053 2.36553 2.14644 2.54218 1.89578 2.64717C1.64522 2.75132 1.36934 2.77856 1.10325 2.72543C0.837162 2.67231 0.592895 2.54121 0.401536 2.34884C0.209818 2.15634 0.0792959 1.91146 0.0263824 1.64498C-0.0265312 1.3785 0.000526975 1.10233 0.104154 0.851187C0.20778 0.600045 0.383349 0.38515 0.608782 0.233524C0.834215 0.0818982 1.09945 0.000311424 1.37112 -0.000976562C1.55169 -0.000977832 1.73047 0.0346707 1.89723 0.103924C2.06398 0.173178 2.21542 0.274673 2.34285 0.402589C2.47029 0.530504 2.57122 0.682321 2.63985 0.849332C2.70848 1.01634 2.74346 1.19526 2.74278 1.37582Z" fill="white"/>
<path d="M2.74331 3.69312H0V12.8583H2.74331V3.69312Z" fill="white"/>
</svg>
