<svg width="18" height="12" viewBox="0 0 18 12" fill="none" xmlns="http://www.w3.org/2000/svg">
<path d="M7.5168 8.57143L11.9283 6L7.5168 3.42857V8.57143ZM17.3428 1.86C17.4533 2.26286 17.5298 2.80286 17.5808 3.48857C17.6403 4.17429 17.6658 4.76571 17.6658 5.28L17.7168 6C17.7168 7.87714 17.5808 9.25714 17.3428 10.14C17.1303 10.9114 16.6373 11.4086 15.8723 11.6229C15.4728 11.7343 14.7418 11.8114 13.6198 11.8629C12.5148 11.9229 11.5033 11.9486 10.5683 11.9486L9.2168 12C5.6553 12 3.4368 11.8629 2.5613 11.6229C1.7963 11.4086 1.3033 10.9114 1.0908 10.14C0.980297 9.73714 0.903797 9.19714 0.852797 8.51143C0.793297 7.82571 0.767797 7.23429 0.767797 6.72L0.716797 6C0.716797 4.12286 0.852797 2.74286 1.0908 1.86C1.3033 1.08857 1.7963 0.591429 2.5613 0.377143C2.9608 0.265714 3.6918 0.188571 4.8138 0.137143C5.9188 0.0771427 6.9303 0.0514285 7.8653 0.0514285L9.2168 0C12.7783 0 14.9968 0.137143 15.8723 0.377143C16.6373 0.591429 17.1303 1.08857 17.3428 1.86Z" fill="#4FEC00"/>
</svg>
